<svg xmlns="http://www.w3.org/2000/svg" width="18.186" height="15.388" viewBox="0 0 18.186 15.388"><defs><style>.a{fill:#fff;}</style></defs><g transform="translate(-24 -28)"><g transform="translate(24 28)"><g transform="translate(0 0)"><path class="a" d="M40.437,34.4V28.7a.7.7,0,1,0-1.4,0v5.7a2.449,2.449,0,0,0,0,4.693v3.6a.7.7,0,0,0,1.4,0v-3.6a2.449,2.449,0,0,0,0-4.693Zm-6.645-5.246V28.7a.7.7,0,1,0-1.4,0v.451a2.449,2.449,0,0,0,0,4.693v8.845a.7.7,0,0,0,1.4,0V33.844a2.449,2.449,0,0,0,0-4.693Zm-6.645,8.393V28.7a.7.7,0,1,0-1.4,0v8.845a2.449,2.449,0,0,0,0,4.693v.451a.7.7,0,0,0,1.4,0v-.451a2.449,2.449,0,0,0,0-4.693Z" transform="translate(-24 -28)"/></g></g></g></svg>