<svg width="113" height="36" viewBox="0 0 113 36" fill="none" xmlns="http://www.w3.org/2000/svg">
<path d="M36 18C36 27.9411 27.9411 36 18 36C8.05887 36 0 27.9411 0 18C0 8.05887 8.05887 0 18 0C27.9411 0 36 8.05887 36 18Z" fill="#FAFAFC"/>
<path d="M5 16.2807H8.49074V25H5V16.2807Z" fill="#3869E8"/>
<path d="M8.49074 16.2807H14.168L15.8333 18L14.168 19.7193H8.49074V16.2807Z" fill="#3869E8"/>
<path d="M31 25L18.0924 11H13.5463L26.4539 25H31Z" fill="#3869E8"/>
<path d="M13.5463 25L26.4539 11H31L18.0924 25H13.5463Z" fill="#3869E8"/>
<path d="M5 11.0001H16.8784V14.5221H8.46175L5 11.0001Z" fill="#3869E8"/>
<path d="M17.0585 21.478H8.46173V25H13.5968L17.0585 21.478Z" fill="#3869E8"/>
<path d="M50.0331 18.6582C50.0331 18.7971 50.022 18.9947 50 19.251H43.068C43.1893 19.8812 43.5037 20.3832 44.011 20.757C44.5294 21.1202 45.1691 21.3017 45.9301 21.3017C46.9007 21.3017 47.7003 20.992 48.329 20.3725L49.4375 21.6061C49.0404 22.0654 48.5386 22.4125 47.932 22.6475C47.3253 22.8825 46.6415 23 45.8805 23C44.9099 23 44.0551 22.8131 43.3162 22.4393C42.5772 22.0654 42.0037 21.5474 41.5956 20.8852C41.1985 20.2123 41 19.4539 41 18.6101C41 17.777 41.193 17.0294 41.579 16.3672C41.9761 15.6943 42.5221 15.1709 43.2169 14.7971C43.9118 14.4232 44.6948 14.2363 45.5662 14.2363C46.4265 14.2363 47.193 14.4232 47.8658 14.7971C48.5496 15.1602 49.079 15.6782 49.454 16.3511C49.84 17.0134 50.0331 17.7824 50.0331 18.6582ZM45.5662 15.8385C44.9044 15.8385 44.3419 16.0307 43.8787 16.4152C43.4265 16.7891 43.1507 17.2911 43.0515 17.9212H48.0643C47.9761 17.3017 47.7059 16.7997 47.2537 16.4152C46.8015 16.0307 46.239 15.8385 45.5662 15.8385Z" fill="#FAFAFC"/>
<path d="M57.4435 22.8879L55.177 19.9239L52.8939 22.8879H50.6108L54.052 18.5461L50.7597 14.3324H53.0593L55.2266 17.1362L57.3939 14.3324H59.6273L56.3185 18.514L59.7762 22.8879H57.4435Z" fill="#FAFAFC"/>
<path d="M74.624 14.3324L71.3648 22.8879H69.3795L67.0964 16.992L64.7803 22.8879H62.795L59.5524 14.3324H61.5046L63.8373 20.6449L66.2692 14.3324H68.0064L70.3887 20.6769L72.7876 14.3324H74.624Z" fill="#FAFAFC"/>
<path d="M81.1001 14.2363C82.2141 14.2363 83.1074 14.5514 83.7802 15.1816C84.453 15.8117 84.7894 16.7463 84.7894 17.9853V22.8879H82.7214V18.2417C82.7214 17.494 82.5394 16.9332 82.1754 16.5594C81.8115 16.1749 81.2931 15.9826 80.6203 15.9826C79.8593 15.9826 79.2582 16.2069 78.817 16.6555C78.3758 17.0935 78.1552 17.729 78.1552 18.5621V22.8879H76.0872V11H78.1552V15.3258C78.4972 14.9733 78.9163 14.7063 79.4126 14.5247C79.9199 14.3324 80.4824 14.2363 81.1001 14.2363Z" fill="#FAFAFC"/>
<path d="M95.8401 18.6582C95.8401 18.7971 95.829 18.9947 95.807 19.251H88.875C88.9963 19.8812 89.3107 20.3832 89.818 20.757C90.3364 21.1202 90.9761 21.3017 91.7371 21.3017C92.7077 21.3017 93.5074 20.992 94.136 20.3725L95.2445 21.6061C94.8474 22.0654 94.3456 22.4125 93.739 22.6475C93.1324 22.8825 92.4485 23 91.6875 23C90.7169 23 89.8621 22.8131 89.1232 22.4393C88.3842 22.0654 87.8107 21.5474 87.4026 20.8852C87.0055 20.2123 86.807 19.4539 86.807 18.6101C86.807 17.777 87 17.0294 87.386 16.3672C87.7831 15.6943 88.3291 15.1709 89.0239 14.7971C89.7188 14.4232 90.5019 14.2363 91.3732 14.2363C92.2335 14.2363 93 14.4232 93.6728 14.7971C94.3566 15.1602 94.886 15.6782 95.261 16.3511C95.6471 17.0134 95.8401 17.7824 95.8401 18.6582ZM91.3732 15.8385C90.7114 15.8385 90.1489 16.0307 89.6857 16.4152C89.2335 16.7891 88.9577 17.2911 88.8585 17.9212H93.8713C93.7831 17.3017 93.5129 16.7997 93.0607 16.4152C92.6085 16.0307 92.046 15.8385 91.3732 15.8385Z" fill="#FAFAFC"/>
<path d="M99.8366 15.5821C100.432 14.6849 101.48 14.2363 102.98 14.2363V16.1429C102.804 16.1108 102.644 16.0948 102.5 16.0948C101.695 16.0948 101.066 16.3244 100.614 16.7837C100.162 17.2323 99.9359 17.8838 99.9359 18.7383V22.8879H97.8679V14.3324H99.8366V15.5821Z" fill="#FAFAFC"/>
<path d="M113 18.6582C113 18.7971 112.989 18.9947 112.967 19.251H106.035C106.156 19.8812 106.471 20.3832 106.978 20.757C107.496 21.1202 108.136 21.3017 108.897 21.3017C109.868 21.3017 110.667 20.992 111.296 20.3725L112.404 21.6061C112.007 22.0654 111.506 22.4125 110.899 22.6475C110.292 22.8825 109.608 23 108.847 23C107.877 23 107.022 22.8131 106.283 22.4393C105.544 22.0654 104.971 21.5474 104.563 20.8852C104.165 20.2123 103.967 19.4539 103.967 18.6101C103.967 17.777 104.16 17.0294 104.546 16.3672C104.943 15.6943 105.489 15.1709 106.184 14.7971C106.879 14.4232 107.662 14.2363 108.533 14.2363C109.393 14.2363 110.16 14.4232 110.833 14.7971C111.517 15.1602 112.046 15.6782 112.421 16.3511C112.807 17.0134 113 17.7824 113 18.6582ZM108.533 15.8385C107.871 15.8385 107.309 16.0307 106.846 16.4152C106.393 16.7891 106.118 17.2911 106.018 17.9212H111.031C110.943 17.3017 110.673 16.7997 110.221 16.4152C109.768 16.0307 109.206 15.8385 108.533 15.8385Z" fill="#FAFAFC"/>
</svg>
